<svg width="500" height="500" viewBox="0 0 500 500" fill="none" xmlns="http://www.w3.org/2000/svg">
<circle cx="250" cy="250" r="250" fill="#001F2B"/>
<path d="M500 249.702C500 387.773 388.071 499.702 250 499.702C111.929 499.702 0 387.773 0 249.702C0 111.63 171.413 130.097 279 202C380 269.501 500 111.63 500 249.702Z" fill="#00719C"/>
<path d="M500 249.999C500 388.07 388.071 499.999 250 499.999C111.929 499.999 22.5 373.572 22.5 235.501C77 256.501 -5.5 255.5 118.5 225C248.948 192.914 404 155.501 500 249.999Z" fill="#009BD6"/>
<path d="M500 249.999C500 388.07 388.071 499.999 250 499.999C111.929 499.999 0 388.07 0 249.999C0 111.928 119 267.754 245.5 240.5C368.5 214 500 111.928 500 249.999Z" fill="#00B8FF"/>
<path d="M257.462 249C259.379 249 260.754 249.417 261.587 250.25C262.504 251.083 262.962 252.167 262.962 253.5C262.962 255.667 262.296 257.583 260.962 259.25C259.712 260.917 257.712 261.792 254.962 261.875C248.379 261.958 242.462 261.458 237.212 260.375C231.379 272.792 224.337 283.125 216.087 291.375C207.921 299.542 199.837 303.625 191.837 303.625C184.504 303.625 179.004 299.75 175.337 292C171.671 284.167 169.587 273.708 169.087 260.625C164.087 275.125 158.421 285.917 152.087 293C145.837 300.083 139.171 303.625 132.087 303.625C124.087 303.625 118.046 298.667 113.962 288.75C109.879 278.75 107.837 265.333 107.837 248.5C107.837 236.25 108.921 222.792 111.087 208.125C111.671 203.958 112.712 201.083 114.212 199.5C115.796 197.833 118.254 197 121.587 197C124.087 197 126.004 197.542 127.337 198.625C128.754 199.708 129.462 201.708 129.462 204.625C129.462 205.208 129.379 206.333 129.212 208C126.712 225.083 125.462 239.625 125.462 251.625C125.462 262.792 126.421 271.417 128.337 277.5C130.254 283.583 132.837 286.625 136.087 286.625C139.004 286.625 142.504 283.583 146.587 277.5C150.754 271.333 154.879 262.25 158.962 250.25C163.046 238.167 166.504 223.792 169.337 207.125C170.004 203.292 171.212 200.667 172.962 199.25C174.796 197.75 177.254 197 180.337 197C182.921 197 184.796 197.583 185.962 198.75C187.212 199.833 187.837 201.5 187.837 203.75C187.837 205.083 187.754 206.125 187.587 206.875C185.254 220.458 184.087 234.042 184.087 247.625C184.087 256.875 184.379 264.25 184.962 269.75C185.629 275.25 186.837 279.458 188.587 282.375C190.421 285.208 193.046 286.625 196.462 286.625C200.462 286.625 204.921 283.625 209.837 277.625C214.754 271.542 219.254 264 223.337 255C218.254 251.833 214.421 247.75 211.837 242.75C209.254 237.667 207.962 231.833 207.962 225.25C207.962 218.667 208.962 213.125 210.962 208.625C213.046 204.042 215.837 200.625 219.337 198.375C222.921 196.125 226.879 195 231.212 195C236.546 195 240.754 196.917 243.837 200.75C247.004 204.583 248.587 209.833 248.587 216.5C248.587 225.917 246.546 236.375 242.462 247.875C246.712 248.625 251.712 249 257.462 249ZM220.587 224.375C220.587 232.542 223.212 238.583 228.462 242.5C231.712 233.167 233.337 225.458 233.337 219.375C233.337 215.875 232.879 213.333 231.962 211.75C231.046 210.083 229.796 209.25 228.212 209.25C225.962 209.25 224.129 210.583 222.712 213.25C221.296 215.833 220.587 219.542 220.587 224.375ZM261.182 303.625C256.015 303.625 251.89 301.75 248.807 298C245.724 294.25 244.182 289.333 244.182 283.25C244.182 276.583 245.724 270.292 248.807 264.375C251.89 258.375 255.974 253.583 261.057 250C266.224 246.333 271.682 244.5 277.432 244.5C279.265 244.5 280.474 244.875 281.057 245.625C281.724 246.292 282.265 247.542 282.682 249.375C284.432 249.042 286.265 248.875 288.182 248.875C292.265 248.875 294.307 250.333 294.307 253.25C294.307 255 293.682 259.167 292.432 265.75C290.515 275.333 289.557 282 289.557 285.75C289.557 287 289.849 288 290.432 288.75C291.099 289.5 291.932 289.875 292.932 289.875C294.515 289.875 296.432 288.875 298.682 286.875C300.932 284.792 303.974 281.458 307.807 276.875C308.807 275.708 309.932 275.125 311.182 275.125C312.265 275.125 313.099 275.625 313.682 276.625C314.349 277.625 314.682 279 314.682 280.75C314.682 284.083 313.89 286.667 312.307 288.5C308.89 292.75 305.265 296.333 301.432 299.25C297.599 302.167 293.89 303.625 290.307 303.625C287.557 303.625 285.015 302.708 282.682 300.875C280.432 298.958 278.724 296.375 277.557 293.125C273.224 300.125 267.765 303.625 261.182 303.625ZM265.682 291C267.515 291 269.265 289.917 270.932 287.75C272.599 285.583 273.807 282.708 274.557 279.125L279.182 256.125C275.682 256.208 272.432 257.542 269.432 260.125C266.515 262.625 264.182 265.958 262.432 270.125C260.682 274.292 259.807 278.708 259.807 283.375C259.807 285.958 260.307 287.875 261.307 289.125C262.39 290.375 263.849 291 265.682 291ZM367.619 265C367.869 264.917 368.285 264.875 368.869 264.875C370.119 264.875 371.077 265.292 371.744 266.125C372.41 266.958 372.744 268.083 372.744 269.5C372.744 272.083 372.244 274.125 371.244 275.625C370.244 277.042 368.744 278.083 366.744 278.75C362.91 280 358.827 280.625 354.494 280.625C350.827 280.625 347.369 280.125 344.119 279.125C341.702 283.042 339.035 287.083 336.119 291.25C332.785 296 329.91 299.25 327.494 301C325.077 302.75 322.327 303.625 319.244 303.625C315.827 303.625 313.119 302.292 311.119 299.625C309.202 296.958 307.994 292.75 307.494 287C306.494 275.333 305.994 265.125 305.994 256.375V252C306.077 249.25 306.827 247.333 308.244 246.25C309.66 245.167 311.785 244.625 314.619 244.625C316.785 244.625 318.369 245.125 319.369 246.125C320.452 247.042 320.994 248.625 320.994 250.875C320.994 260.458 321.577 272.917 322.744 288.25C327.744 280.833 331.494 274.917 333.994 270.5C332.744 268.083 332.119 265.208 332.119 261.875C332.119 259.042 332.744 256.292 333.994 253.625C335.244 250.958 336.952 248.792 339.119 247.125C341.285 245.458 343.744 244.625 346.494 244.625C348.91 244.625 350.869 245.5 352.369 247.25C353.869 248.917 354.619 251.375 354.619 254.625C354.619 258.375 353.619 262.667 351.619 267.5C354.785 267.333 358.994 266.708 364.244 265.625L367.619 265ZM406.646 278.875C407.729 278.875 408.563 279.375 409.146 280.375C409.813 281.375 410.146 282.75 410.146 284.5C410.146 287.5 409.438 290.083 408.021 292.25C405.688 295.833 402.604 298.625 398.771 300.625C395.021 302.625 390.521 303.625 385.271 303.625C377.271 303.625 371.063 301.25 366.646 296.5C362.229 291.667 360.021 285.167 360.021 277C360.021 271.25 361.229 265.917 363.646 261C366.063 256 369.396 252.042 373.646 249.125C377.979 246.208 382.854 244.75 388.271 244.75C393.104 244.75 396.979 246.208 399.896 249.125C402.813 251.958 404.271 255.833 404.271 260.75C404.271 266.5 402.188 271.458 398.021 275.625C393.938 279.708 386.938 282.958 377.021 285.375C379.021 289.208 382.396 291.125 387.146 291.125C390.563 291.125 393.354 290.333 395.521 288.75C397.771 287.167 400.354 284.5 403.271 280.75C404.271 279.5 405.396 278.875 406.646 278.875ZM386.146 257C383.063 257 380.438 258.792 378.271 262.375C376.188 265.958 375.146 270.292 375.146 275.375V275.625C380.063 274.458 383.938 272.708 386.771 270.375C389.604 268.042 391.021 265.333 391.021 262.25C391.021 260.667 390.563 259.417 389.646 258.5C388.813 257.5 387.646 257 386.146 257Z" fill="white"/>
</svg>
